<svg width="21" height="20" viewBox="0 0 21 20" fill="none" xmlns="http://www.w3.org/2000/svg">
<path d="M19.742 10.3238L10.742 0.323763C10.363 -0.0982368 9.63501 -0.0982368 9.25601 0.323763L0.256007 10.3238C0.126464 10.4674 0.0414319 10.6455 0.0112515 10.8365C-0.0189289 11.0275 0.00704218 11.2232 0.0860072 11.3998C0.246007 11.7608 0.604007 11.9928 0.999007 11.9928H2.99901V18.9928C2.99901 19.258 3.10436 19.5123 3.2919 19.6999C3.47944 19.8874 3.73379 19.9928 3.99901 19.9928H15.999C16.2642 19.9928 16.5186 19.8874 16.7061 19.6999C16.8937 19.5123 16.999 19.258 16.999 18.9928V11.9928H18.999C19.1927 11.9936 19.3824 11.938 19.545 11.8329C19.7077 11.7278 19.8362 11.5776 19.915 11.4007C19.9938 11.2237 20.0193 11.0277 19.9886 10.8365C19.9579 10.6453 19.8722 10.4671 19.742 10.3238ZM13.999 12.9928H10.999V15.9928H8.99901V12.9928H5.99901V10.9928H8.99901V7.99276H10.999V10.9928H13.999V12.9928Z" fill="#02CAD3"/>
</svg>
