<svg width="74" height="74" viewBox="0 0 74 74" fill="none" xmlns="http://www.w3.org/2000/svg">
<g clip-path="url(#clip0_0_3859)">
<path d="M42.1734 52.4128H31.8279C30.2337 52.4128 28.9358 53.7107 28.9358 55.3049V74H45.0654V55.3049C45.0654 53.7107 43.7675 52.4128 42.1734 52.4128ZM37.0007 19.0564C7.3057 36.1909 9.28621 35.0838 8.65417 35.3335L14.6535 72.1803C14.8255 73.2296 15.7317 74 16.794 74H24.6V55.3049C24.6 51.3201 27.8419 48.0769 31.8279 48.0769H42.1733C46.1595 48.0769 49.4011 51.3201 49.4011 55.3049V74H57.2071C58.2694 74 59.1756 73.2296 59.3476 72.1803L65.347 35.3335C64.7181 35.0861 66.741 36.2165 37.0007 19.0564ZM50.2121 39.7056C51.0591 40.5526 51.0591 41.9256 50.2121 42.7726C49.3652 43.6195 47.9921 43.6181 47.1452 42.7726L44.2646 39.8906H29.767L26.8561 42.8029C26.0073 43.6489 24.6379 43.6487 23.7892 42.8029C22.9422 41.956 22.9422 40.5829 23.7892 39.736L25.8025 37.7226L23.7892 35.7093C22.9422 34.8624 22.9422 33.4893 23.7892 32.6424C24.6362 31.7969 26.0092 31.7969 26.8561 32.6424L29.767 35.5547H44.2648L47.1453 32.6727C47.9923 31.8272 49.3653 31.8272 50.2122 32.6727C51.0592 33.5197 51.0592 34.8927 50.2122 35.7397L48.2291 37.7226L50.2121 39.7056ZM42.1734 52.4128H31.8279C30.2337 52.4128 28.9358 53.7107 28.9358 55.3049V74H45.0654V55.3049C45.0654 53.7107 43.7675 52.4128 42.1734 52.4128Z" fill="#FDE598"/>
<path d="M73.709 23.5268L69.6274 30.3747C69.027 31.4156 67.6914 31.7673 66.6588 31.1638L36.9999 14.0499L7.34111 31.1638C6.30525 31.7691 4.97152 31.4133 4.37244 30.3747L0.290873 23.5268C-0.303151 22.4978 0.0408335 21.184 1.06267 20.5784C13.9968 12.901 7.2924 16.8165 35.9159 0.290528C36.2455 0.100221 36.6194 3.05176e-05 36.9999 3.05176e-05C37.3805 3.05176e-05 37.7544 0.100221 38.0839 0.290528C66.8897 16.9216 59.9185 12.8552 72.9372 20.5784C73.959 21.184 74.303 22.4992 73.709 23.5268Z" fill="#FDE598"/>
</g>
<defs>
<clipPath id="clip0_0_3859">
<rect width="74" height="74" fill="white"/>
</clipPath>
</defs>
</svg>
