<svg width="56" height="92" viewBox="0 0 56 92" fill="none" xmlns="http://www.w3.org/2000/svg">
<path fill-rule="evenodd" clip-rule="evenodd" d="M42.8742 26.7692L46.8039 25.8692C48.1674 25.5569 49.5385 26.417 49.8507 27.7803L54.7403 49.1293C55.0525 50.4927 54.1925 51.8639 52.829 52.1761L48.8993 53.0761C47.536 53.3884 46.1648 52.5284 45.8526 51.1649L40.963 29.8158C40.6508 28.4525 41.5108 27.0815 42.8742 26.7692ZM27.6891 4.76884C29.1838 1.86132 30.6784 0.407623 33.6679 0.407623C36.9683 0.407623 39.6467 3.01268 39.6467 6.22253C39.6467 12.0376 33.6679 15.8857 27.6891 21.7008C21.7103 15.8857 15.7316 12.0376 15.7316 6.22253C15.7316 3.01268 18.41 0.407623 21.7104 0.407623C24.6997 0.407623 26.1944 1.86132 27.6891 4.76884ZM16.2863 30.9399C15.6164 31.6936 14.93 32.5063 14.2232 33.3433C12.3428 35.5702 10.3092 37.9784 8.14206 39.7956C7.71856 40.1499 7.6879 40.7894 8.07123 41.1844C10.2539 43.7758 12.5566 44.4473 14.9159 44.064C17.1512 43.7009 19.3489 42.3639 21.5234 40.8581C23.3699 39.5794 25.7891 39.7994 27.3767 41.387L33.9811 52.1761C34.4441 52.6391 34.6335 53.1531 34.6335 53.7597C34.6334 55.0726 35.2923 55.9462 33.9811 55.9463C33.3745 55.9464 36.315 57.4091 35.8521 56.9463L26.8217 47.5429C26.4509 47.1721 25.8494 47.1721 25.4785 47.5429C25.1076 47.9138 25.1076 48.5152 25.4785 48.8862C28.743 52.1509 32.0078 54.4152 35.2725 57.6798C35.7354 58.1426 35.9667 59.7508 35.9667 60.3574C35.9666 61.6708 34.9068 61.7296 33.5944 61.7297C32.9877 61.7297 32.3796 61.4985 31.9169 61.0356C28.5452 57.6638 25.1736 55.2919 21.802 51.92C21.4312 51.5492 20.8298 51.5492 20.4588 51.92C20.0879 52.2909 20.0879 52.8923 20.4588 53.2633L27.962 59.7669C28.4015 60.225 28.6213 60.8176 28.6213 61.4087C28.6212 62.721 27.5622 63.7809 26.249 63.781C25.6424 63.7811 25.0344 63.5498 24.5715 63.0869L16.3577 54.8728C15.9868 54.502 15.3853 54.502 15.0144 54.8728C14.6436 55.2437 14.6436 55.8452 15.0144 56.216L18.8436 60.0453C19.2885 60.5047 19.5108 61.1008 19.5108 61.6955C19.5107 63.008 19.7596 62.8317 18.4464 62.8318C17.8154 62.832 16.1531 63.0812 15.7068 62.6348C11.319 60.2887 8.44973 57.7045 5.67103 54.8823C2.65841 51.8226 1.43677 47.3868 2.39538 43.2013L2.7294 41.7429C4.17715 35.4217 9.8014 30.9399 16.2863 30.9399ZM39.7495 33.0261L39.1592 33.283C37.2693 34.1051 35.268 33.975 33.4742 32.973C32.2803 32.306 31.2113 31.6789 30.2543 31.1174C26.3273 28.8136 24.4312 27.7013 21.8089 28.6817C20.1018 29.32 18.0068 31.8009 15.6704 34.5677C13.9496 36.6054 12.1042 38.7909 10.1038 40.6008C11.5872 42.0605 13.0949 42.4404 14.6118 42.194C16.4837 41.8899 18.463 40.674 20.4475 39.2998C23.0382 37.5058 26.4913 37.8153 28.72 40.0439C32.7881 44.1119 36.9596 48.1644 40.9623 52.2867L43.867 51.0046L39.7495 33.0261Z" fill="#D3B0E0"/>
<path d="M21.4173 66.5362C18.8722 65.7502 16.4672 64.5673 14.291 63.0312C13.8352 62.6892 13.3793 62.3473 12.9546 61.9638C12.4804 61.5451 12.0935 61.0369 11.8159 60.4684C11.5383 59.8998 11.3756 59.282 11.3369 58.6504C11.3063 57.9597 11.4288 57.2707 11.6956 56.6329C11.8965 56.155 12.1785 55.7153 12.529 55.3334C13.4584 54.3762 14.4861 53.5197 15.5951 52.7782C16.3047 52.2586 16.988 51.7689 17.6165 51.2152C18.8354 50.1466 19.9557 48.9704 20.9638 47.7008C21.3545 47.1704 21.7041 46.6108 22.0093 46.027C22.4041 45.2714 22.8663 44.5531 23.3901 43.8806C23.8538 43.3139 24.4355 42.8552 25.0947 42.5367C25.7539 42.2182 23.697 40.5037 24.4288 40.4928C25.1813 40.4848 25.9817 40.47 26.6692 40.7759C27.3567 41.0819 30.6927 43.2452 31.1905 43.8096C32.3289 45.0908 33.2478 46.5514 33.91 48.1325C35.7723 51.9869 36.5719 56.2693 36.226 60.537C35.5596 65.3574 32.5861 67.9517 27.6919 67.855C26.5987 67.8507 25.5096 67.7216 24.4458 67.4703C23.4639 67.1797 22.4754 66.8726 21.4173 66.5362Z" fill="#D3B0E0"/>
<path d="M47.8017 58.217C49.8153 59.9801 50.5616 61.9699 49.8789 63.6271C49.1961 65.2843 47.0643 66.174 44.6186 65.8199C43.4594 65.7016 42.3425 65.3206 41.3528 64.7058C40.3631 64.091 39.5265 63.2586 38.9068 62.272C38.5355 61.7481 38.2968 61.1419 38.2112 60.5054C38.1256 59.869 38.1957 59.2213 38.4153 58.6178C38.5498 58.3137 38.7293 58.0316 38.9476 57.7809C39.5967 57.0875 40.4537 56.6242 41.3893 56.4611C42.5213 56.2441 43.688 56.2896 44.7996 56.594C45.9112 56.8984 46.9382 57.4536 47.8017 58.217Z" fill="#D3B0E0"/>
<path d="M27.1045 71.9552C27.2589 71.7513 27.4276 71.5586 27.6093 71.3786C28.1423 70.7543 28.8696 70.327 29.6748 70.1651C30.2081 70.0905 30.7513 70.1287 31.2692 70.2772C31.787 70.4258 32.268 70.6814 32.6811 71.0275C33.9324 72.2183 34.8014 73.7541 35.1776 75.4393C35.5537 77.1244 35.4199 78.8828 34.7933 80.4906C34.5382 81.0568 34.1554 81.5561 33.6748 81.9493C33.1942 82.3425 32.6289 82.619 32.0232 82.7569C31.4152 82.8501 30.7937 82.7994 30.2086 82.6089C29.6234 82.4184 29.0909 82.0935 28.6538 81.6601C27.3866 80.4227 26.5516 78.8104 26.2725 77.0622C25.9934 75.314 26.2852 73.5232 27.1045 71.9552Z" fill="#D3B0E0"/>
<path d="M17.5678 79.8302C16.4265 78.7978 15.6283 77.4409 15.2805 75.9418C14.9326 74.4427 15.0517 72.873 15.6218 71.4435C15.8263 70.9399 16.1112 70.4728 16.4653 70.0603C16.9324 69.5062 17.5657 69.1174 18.2713 68.9518C18.8965 68.8509 19.5369 68.9039 20.137 69.1062C20.7371 69.3085 21.2789 69.6541 21.7154 70.1129C22.8152 71.2616 23.5333 72.7219 23.7715 74.2942C24.0098 75.8664 23.7565 77.4739 23.0465 78.8967C22.8151 79.3916 22.4672 79.8229 22.0327 80.154C21.5982 80.485 21.09 80.7059 20.5515 80.7976C20.013 80.8894 19.4603 80.8493 18.9407 80.6808C18.4211 80.5123 17.95 80.2205 17.5678 79.8302Z" fill="#D3B0E0"/>
<path d="M40.4596 66.6256C42.6702 67.4652 44.4593 69.1456 45.4354 71.2993C45.5543 71.5478 45.6604 71.8022 45.7534 72.0615C46.0517 72.7005 46.1767 73.4065 46.1158 74.1088C46.055 74.811 45.8104 75.4847 45.4067 76.0622C44.9271 76.5694 44.3183 76.9361 43.6455 77.1231C42.9728 77.3101 42.2617 77.3102 41.5885 77.1233C39.9922 76.8091 38.5299 76.0137 37.3984 74.844C36.2669 73.6743 35.5205 72.1866 35.2596 70.5809C35.1602 70.0144 35.1823 69.4333 35.3246 68.8762C35.4669 68.3191 35.726 67.7987 36.0849 67.3496L36.3991 66.9908C36.9174 66.5998 37.5268 66.3471 38.1699 66.2565C38.8131 66.1659 39.4689 66.2404 40.0756 66.4729C40.2316 66.5427 40.3403 66.5712 40.4596 66.6256Z" fill="#D3B0E0"/>
</svg>
