<svg width="20" height="18" viewBox="0 0 20 18" fill="none" xmlns="http://www.w3.org/2000/svg">
<path d="M17.5958 0.5H15.7801V2.2C15.7801 2.54 15.4775 2.76667 15.1748 2.76667C14.8722 2.76667 14.5696 2.54 14.5696 2.2V0.5H4.88556V2.2C4.88556 2.54 4.58293 2.76667 4.2803 2.76667C3.97768 2.76667 3.67505 2.54 3.67505 2.2V0.5H1.8593C0.951421 0.5 0.285645 1.23667 0.285645 2.2V4.24H19.6537V2.2C19.6537 1.23667 18.5642 0.5 17.5958 0.5ZM0.285645 5.43V15.8C0.285645 16.82 0.951421 17.5 1.91982 17.5H17.6564C18.6248 17.5 19.7142 16.7633 19.7142 15.8V5.43H0.285645ZM5.67238 14.95H4.21978C3.97768 14.95 3.73558 14.78 3.73558 14.4967V13.08C3.73558 12.8533 3.91715 12.6267 4.21978 12.6267H5.73291C5.97501 12.6267 6.21711 12.7967 6.21711 13.08V14.4967C6.15658 14.78 5.97501 14.95 5.67238 14.95ZM5.67238 9.85H4.21978C3.97768 9.85 3.73558 9.68 3.73558 9.39667V7.98C3.73558 7.75333 3.91715 7.52667 4.21978 7.52667H5.73291C5.97501 7.52667 6.21711 7.69667 6.21711 7.98V9.39667C6.15658 9.68 5.97501 9.85 5.67238 9.85ZM10.5144 14.95H9.00126C8.75916 14.95 8.51706 14.78 8.51706 14.4967V13.08C8.51706 12.8533 8.69864 12.6267 9.00126 12.6267H10.5144C10.7565 12.6267 10.9986 12.7967 10.9986 13.08V14.4967C10.9986 14.78 10.817 14.95 10.5144 14.95ZM10.5144 9.85H9.00126C8.75916 9.85 8.51706 9.68 8.51706 9.39667V7.98C8.51706 7.75333 8.69864 7.52667 9.00126 7.52667H10.5144C10.7565 7.52667 10.9986 7.69667 10.9986 7.98V9.39667C10.9986 9.68 10.817 9.85 10.5144 9.85ZM15.3564 14.95H13.8433C13.6012 14.95 13.3591 14.78 13.3591 14.4967V13.08C13.3591 12.8533 13.5407 12.6267 13.8433 12.6267H15.3564C15.5985 12.6267 15.8406 12.7967 15.8406 13.08V14.4967C15.8406 14.78 15.659 14.95 15.3564 14.95ZM15.3564 9.85H13.8433C13.6012 9.85 13.3591 9.68 13.3591 9.39667V7.98C13.3591 7.75333 13.5407 7.52667 13.8433 7.52667H15.3564C15.5985 7.52667 15.8406 7.69667 15.8406 7.98V9.39667C15.8406 9.68 15.659 9.85 15.3564 9.85Z" fill="#02CAD3"/>
</svg>
