<svg width="12" height="13" viewBox="0 0 12 13" fill="none" xmlns="http://www.w3.org/2000/svg">
<path d="M10.4471 1.20588H9.38832V2.2647C9.38832 2.47647 9.21185 2.61764 9.03538 2.61764C8.85891 2.61764 8.68244 2.47647 8.68244 2.2647V1.20588H3.03538V2.2647C3.03538 2.47647 2.85891 2.61764 2.68244 2.61764C2.50597 2.61764 2.3295 2.47647 2.3295 2.2647V1.20588H1.27067C0.741263 1.20588 0.353027 1.6647 0.353027 2.2647V3.53529H11.6471V2.2647C11.6471 1.6647 11.0119 1.20588 10.4471 1.20588ZM0.353027 4.27647V10.7353C0.353027 11.3706 0.741263 11.7941 1.30597 11.7941H10.4824C11.0471 11.7941 11.6824 11.3353 11.6824 10.7353V4.27647H0.353027ZM3.4942 10.2059H2.64714C2.50597 10.2059 2.36479 10.1 2.36479 9.92352V9.04117C2.36479 8.9 2.47067 8.75882 2.64714 8.75882H3.5295C3.67067 8.75882 3.81185 8.8647 3.81185 9.04117V9.92352C3.77656 10.1 3.67067 10.2059 3.4942 10.2059ZM3.4942 7.02941H2.64714C2.50597 7.02941 2.36479 6.92353 2.36479 6.74706V5.8647C2.36479 5.72353 2.47067 5.58235 2.64714 5.58235H3.5295C3.67067 5.58235 3.81185 5.68823 3.81185 5.8647V6.74706C3.77656 6.92353 3.67067 7.02941 3.4942 7.02941ZM6.31773 10.2059H5.43538C5.2942 10.2059 5.15303 10.1 5.15303 9.92352V9.04117C5.15303 8.9 5.25891 8.75882 5.43538 8.75882H6.31773C6.45891 8.75882 6.60009 8.8647 6.60009 9.04117V9.92352C6.60009 10.1 6.4942 10.2059 6.31773 10.2059ZM6.31773 7.02941H5.43538C5.2942 7.02941 5.15303 6.92353 5.15303 6.74706V5.8647C5.15303 5.72353 5.25891 5.58235 5.43538 5.58235H6.31773C6.45891 5.58235 6.60009 5.68823 6.60009 5.8647V6.74706C6.60009 6.92353 6.4942 7.02941 6.31773 7.02941ZM9.14126 10.2059H8.25891C8.11773 10.2059 7.97656 10.1 7.97656 9.92352V9.04117C7.97656 8.9 8.08244 8.75882 8.25891 8.75882H9.14126C9.28244 8.75882 9.42362 8.8647 9.42362 9.04117V9.92352C9.42362 10.1 9.31773 10.2059 9.14126 10.2059ZM9.14126 7.02941H8.25891C8.11773 7.02941 7.97656 6.92353 7.97656 6.74706V5.8647C7.97656 5.72353 8.08244 5.58235 8.25891 5.58235H9.14126C9.28244 5.58235 9.42362 5.68823 9.42362 5.8647V6.74706C9.42362 6.92353 9.31773 7.02941 9.14126 7.02941Z" fill="#A3A3A3"/>
</svg>
