<svg width="101" height="101" viewBox="0 0 101 101" fill="none" xmlns="http://www.w3.org/2000/svg">
<g clip-path="url(#clip0_34_3211)">
<path d="M85.1565 44.7833C85.8954 47.6683 86.3278 50.6766 86.3278 53.7883C86.3278 73.9099 69.9611 90.2759 49.8405 90.2759C29.7204 90.2759 13.3499 73.9101 13.3499 53.7883C13.3499 33.6675 29.7204 17.2972 49.8405 17.2972C54.9687 17.2972 59.8447 18.3732 64.2771 20.29L69.7015 11.5704C63.6649 8.71832 56.9486 7.07417 49.8405 7.07417C24.0823 7.07417 3.12561 28.0308 3.12561 53.7883C3.12561 79.5438 24.0823 100.5 49.8405 100.5C75.595 100.5 96.5512 79.5438 96.5512 53.7883C96.5512 46.6296 94.8841 39.868 91.9961 33.7977L85.1565 44.7833Z" fill="white"/>
<path d="M93.8555 1.78698C89.8624 -0.69627 84.6074 0.521369 82.1212 4.51473L48.2462 58.9501L36.8984 42.7669C34.1997 38.9162 28.8812 37.984 25.0306 40.6831C21.1807 43.3857 20.2451 48.6964 22.9472 52.5505L41.693 79.2843C43.2913 81.5602 45.8965 82.9117 48.6688 82.9117C48.7452 82.9117 48.8254 82.9117 48.902 82.908C51.7604 82.8282 54.3904 81.3215 55.9003 78.8941L96.5853 13.5209C99.0742 9.52315 97.8491 4.27184 93.8555 1.78698Z" fill="white"/>
</g>
<defs>
<clipPath id="clip0_34_3211">
<rect width="100" height="100" fill="white" transform="translate(0.5 0.5)"/>
</clipPath>
</defs>
</svg>
