<svg width="24" height="24" viewBox="0 0 24 24" fill="none" xmlns="http://www.w3.org/2000/svg">
<path fill-rule="evenodd" clip-rule="evenodd" d="M4 4.41667C4 4.04094 4.14926 3.68061 4.41493 3.41493C4.68061 3.14926 5.04094 3 5.41667 3H19.5833C19.9591 3 20.3194 3.14926 20.5851 3.41493C20.8507 3.68061 21 4.04094 21 4.41667V6.38678C20.9999 6.8877 20.8008 7.36807 20.4466 7.72222L15.3333 12.8354V19.847C15.3334 20.0241 15.2881 20.1983 15.2019 20.353C15.1157 20.5077 14.9913 20.6377 14.8407 20.7309C14.69 20.824 14.5181 20.877 14.3411 20.885C14.1642 20.893 13.9882 20.8555 13.8298 20.7763L10.3193 19.0216C10.1232 18.9235 9.95826 18.7728 9.843 18.5863C9.72773 18.3998 9.66667 18.1849 9.66667 17.9657V12.8354L4.55344 7.72222C4.19918 7.36807 4.00011 6.8877 4 6.38678V4.41667Z" fill="white"/>
</svg>
