<svg width="22" height="22" viewBox="0 0 22 22" fill="none" xmlns="http://www.w3.org/2000/svg">
<g clip-path="url(#clip0_378_6011)">
<path d="M8.85431 17.701C10.8207 17.701 12.7308 17.045 14.2822 15.8367L20.1349 21.6894C20.5721 22.1116 21.2688 22.0995 21.691 21.6623C22.103 21.2358 22.103 20.5596 21.691 20.1332L15.8383 14.2805C18.8367 10.4208 18.1385 4.86134 14.2788 1.86301C10.4191 -1.13532 4.8597 -0.43711 1.86137 3.42255C-1.13697 7.28222 -0.438759 12.8417 3.4209 15.84C4.97477 17.0472 6.88663 17.702 8.85431 17.701ZM4.15172 4.14998C6.74891 1.55274 10.9598 1.55269 13.557 4.14989C16.1543 6.74708 16.1543 10.958 13.5571 13.5552C10.9599 16.1525 6.74906 16.1525 4.15181 13.5553C4.15176 13.5553 4.15176 13.5553 4.15172 13.5552C1.55452 10.9769 1.53922 6.7814 4.11749 4.18421C4.12888 4.17277 4.14028 4.16137 4.15172 4.14998Z" fill="#AAAABC"/>
</g>
<defs>
<clipPath id="clip0_378_6011">
<rect width="22" height="22" fill="white"/>
</clipPath>
</defs>
</svg>
