<svg width="24" height="24" viewBox="0 0 24 24" fill="none" xmlns="http://www.w3.org/2000/svg">
<path d="M3.61537 16.1153C4.50751 16.1153 5.23074 15.0305 5.23074 13.6923C5.23074 12.354 4.50751 11.2692 3.61537 11.2692C2.72323 11.2692 2 12.354 2 13.6923C2 15.0305 2.72323 16.1153 3.61537 16.1153Z" stroke="#212121" stroke-width="2" stroke-linecap="round" stroke-linejoin="round"/>
<path d="M8.46254 8.84611C9.35468 8.84611 10.0779 7.76127 10.0779 6.42306C10.0779 5.08484 9.35468 4 8.46254 4C7.57039 4 6.84717 5.08484 6.84717 6.42306C6.84717 7.76127 7.57039 8.84611 8.46254 8.84611Z" stroke="#212121" stroke-width="2" stroke-linecap="round" stroke-linejoin="round"/>
<path d="M16.5372 8.84611C17.4294 8.84611 18.1526 7.76127 18.1526 6.42306C18.1526 5.08484 17.4294 4 16.5372 4C15.6451 4 14.9219 5.08484 14.9219 6.42306C14.9219 7.76127 15.6451 8.84611 16.5372 8.84611Z" stroke="#212121" stroke-width="2" stroke-linecap="round" stroke-linejoin="round"/>
<path d="M21.3844 16.1153C22.2766 16.1153 22.9998 15.0305 22.9998 13.6923C22.9998 12.354 22.2766 11.2692 21.3844 11.2692C20.4923 11.2692 19.769 12.354 19.769 13.6923C19.769 15.0305 20.4923 16.1153 21.3844 16.1153Z" stroke="#212121" stroke-width="2" stroke-linecap="round" stroke-linejoin="round"/>
<path d="M17.3451 16.923C17.3451 19.1522 14.7282 20.1537 12.4989 20.1537C10.2697 20.1537 7.65283 19.1522 7.65283 16.923C7.65283 14.6938 9.2682 11.2692 12.4989 11.2692C15.7297 11.2692 17.3451 14.6938 17.3451 16.923Z" stroke="#212121" stroke-width="2" stroke-linecap="round" stroke-linejoin="round"/>
</svg>
