<svg width="24" height="24" viewBox="0 0 24 24" fill="none" xmlns="http://www.w3.org/2000/svg">
<path d="M21.6666 9.95071L20.0005 8.43454L13.611 2.63646C13.1528 2.22663 12.5596 2.00006 11.9448 2.00006C11.3301 2.00006 10.7369 2.22663 10.2787 2.63646L3.90584 8.46786L2.23972 9.98403C2.12753 10.0979 2.05046 10.2416 2.01769 10.398C1.98493 10.5545 1.99786 10.717 2.05494 10.8663C2.11202 11.0156 2.21084 11.1453 2.33962 11.24C2.4684 11.3347 2.62169 11.3903 2.78121 11.4002C2.99222 11.3907 3.19172 11.3014 3.33936 11.1503L3.61427 10.9004V19.4809C3.61427 20.1437 3.87757 20.7794 4.34626 21.2481C4.81494 21.7168 5.45062 21.9801 6.11344 21.9801H17.7762C18.4391 21.9801 19.0747 21.7168 19.5434 21.2481C20.0121 20.7794 20.2754 20.1437 20.2754 19.4809V10.9337L20.5503 11.1836C20.7031 11.3225 20.902 11.3997 21.1085 11.4002C21.2764 11.3998 21.4403 11.3486 21.5787 11.2533C21.717 11.1581 21.8234 11.0233 21.8837 10.8665C21.9441 10.7098 21.9556 10.5385 21.9169 10.375C21.8782 10.2116 21.7909 10.0637 21.6666 9.95071Z" fill="#FFC700"/>
</svg>
