<svg width="24" height="24" viewBox="0 0 24 24" fill="none" xmlns="http://www.w3.org/2000/svg">
<path d="M22 5.92858C22 8.04238 20.2556 9.76191 18.1111 9.76191C15.9667 9.76191 14.2222 8.04238 14.2222 5.92858C14.2222 3.81477 15.9667 2.09524 18.1111 2.09524C20.2556 2.09524 22 3.81477 22 5.92858ZM19.7778 11.7224C19.2222 11.8648 18.6667 11.9524 18.1111 11.9524C16.4912 11.9495 14.9386 11.3139 13.7931 10.1849C12.6477 9.0558 12.0029 7.5253 12 5.92858C12 4.31858 12.6444 2.86191 13.6667 1.77762C13.465 1.53398 13.2108 1.33774 12.9225 1.20322C12.6341 1.0687 12.319 0.999272 12 1.00001C10.7778 1.00001 9.77778 1.98572 9.77778 3.19048V3.5081C6.47778 4.47191 4.22222 7.46191 4.22222 10.8571V17.4286L2 19.619V20.7143H22V19.619L19.7778 17.4286V11.7224ZM12 24C13.2333 24 14.2222 23.0252 14.2222 21.8095H9.77778C9.77778 22.3905 10.0119 22.9476 10.4287 23.3584C10.8454 23.7692 11.4106 24 12 24Z" fill="white"/>
<circle cx="18" cy="6" r="4" fill="#FFC700"/>
</svg>
