<svg width="81" height="80" viewBox="0 0 81 80" fill="none" xmlns="http://www.w3.org/2000/svg">
<g clip-path="url(#clip0_0_6904)">
<path d="M69.1788 68.6875C84.2622 53.6041 84.2622 29.1491 69.1788 14.0657C54.0954 -1.01773 29.6404 -1.01773 14.557 14.0657C-0.526398 29.1491 -0.526398 53.6041 14.557 68.6875C29.6404 83.7709 54.0954 83.7709 69.1788 68.6875Z" fill="#05C3CB"/>
<path d="M41.877 2.75327V80C63.174 80 80.5004 62.6736 80.5004 41.3766C80.5004 20.0795 63.174 2.75327 41.877 2.75327Z" fill="#02CBD3"/>
<path d="M46.1045 66.7049C60.0858 64.3653 69.5232 51.1344 67.1836 37.153C64.8439 23.1717 51.6131 13.7342 37.6318 16.0738C23.6505 18.4135 14.2131 31.6443 16.5528 45.6257C18.8925 59.6071 32.1232 69.0446 46.1045 66.7049Z" fill="#F0F7FF"/>
<path d="M41.877 15.709V67.0439C56.03 67.0439 67.5445 55.5295 67.5445 41.3764C67.5445 27.2235 56.03 15.709 41.877 15.709Z" fill="#02CBD3" fill-opacity="0.03"/>
<path d="M53.2081 47.1612C56.3953 40.906 53.9082 33.2515 47.653 30.0643C41.3978 26.8771 33.7432 29.3642 30.5561 35.6194C27.3689 41.8746 29.856 49.5292 36.1112 52.7164C42.3664 55.9036 50.021 53.4164 53.2081 47.1612Z" fill="#05C3CB"/>
<path d="M41.877 28.665V54.0881C48.8862 54.0881 54.5886 48.3858 54.5886 41.3766C54.5886 34.3673 48.8862 28.665 41.877 28.665Z" fill="#02CBD3"/>
<path d="M29.1082 12.0364L17.7592 0.687463C17.4814 0.409405 17.1381 0.205625 16.7609 0.0948377C16.3837 -0.0159499 15.9847 -0.0301934 15.6006 0.053415C15.2165 0.137024 14.8595 0.315804 14.5625 0.573337C14.2655 0.830871 14.038 1.1589 13.9008 1.5273L11.5779 7.75962L12.2415 11.742L8.2591 11.0785L2.02694 13.4012C1.65868 13.5385 1.3308 13.7661 1.0734 14.0631C0.815989 14.3602 0.637292 14.7171 0.553699 15.1011C0.470107 15.4852 0.484295 15.8841 0.594964 16.2612C0.705632 16.6383 0.909237 16.9816 1.1871 17.2596L12.5361 28.6086C12.8041 28.8768 13.1332 29.076 13.4951 29.1892C13.857 29.3024 14.241 29.3261 14.6141 29.2585L25.8335 27.2246C26.3036 27.1393 26.7364 26.9126 27.0742 26.5748C27.4121 26.2369 27.6388 25.8041 27.7241 25.334L29.758 14.1146C29.8256 13.7415 29.8018 13.3575 29.6886 12.9956C29.5755 12.6337 29.3763 12.3046 29.1082 12.0364Z" fill="#0BB1B8"/>
<path d="M43.5362 39.7171L11.5786 7.75961L10.6776 10.1774L8.25977 11.0784L40.2174 43.0361C40.435 43.2543 40.6937 43.4273 40.9785 43.5453C41.2632 43.6632 41.5685 43.7238 41.8767 43.7234C42.4773 43.7234 43.078 43.4942 43.5361 43.0361C44.4527 42.1196 44.4527 40.6336 43.5362 39.7171Z" fill="#0BB1B8"/>
</g>
<defs>
<clipPath id="clip0_0_6904">
<rect width="80" height="80" fill="white" transform="translate(0.5)"/>
</clipPath>
</defs>
</svg>
