<svg width="74" height="74" viewBox="0 0 74 74" fill="none" xmlns="http://www.w3.org/2000/svg">
<g clip-path="url(#clip0_0_3844)">
<path d="M72.7642 28.4058L38.8499 3.74093C37.6167 2.81599 36.3834 2.81599 35.1502 3.74093L1.23585 28.4058C-1.23069 29.9474 0.310915 33.9554 3.08572 33.9554H9.252V67.8697C9.252 69.7196 10.4852 70.9528 12.3351 70.9528H61.6649C63.5147 70.9528 64.7479 69.7196 64.7479 67.8697V33.9554H70.9142C73.6892 33.9554 75.2306 29.9474 72.7642 28.4058ZM37 64.7866C26.8258 64.7866 18.5014 56.4622 18.5014 46.2879C18.5014 36.1136 26.8258 27.7892 37 27.7892C47.1743 27.7892 55.4987 36.1136 55.4987 46.2879C55.4987 56.4622 47.1743 64.7866 37 64.7866Z" fill="#F7A593"/>
<path d="M41.6257 41.6633V32.4139H32.3763V41.6633H23.127V50.9126H32.3763V60.162H41.6257V50.9126H50.875V41.6633H41.6257Z" fill="#F7A593"/>
</g>
<defs>
<clipPath id="clip0_0_3844">
<rect width="74" height="74" fill="white"/>
</clipPath>
</defs>
</svg>
