<svg width="62" height="63" viewBox="0 0 62 63" fill="none" xmlns="http://www.w3.org/2000/svg">
<path d="M24.8566 39.0015C24.852 38.9968 24.8451 38.9953 24.8404 38.9899C24.8358 38.9845 24.8335 38.9768 24.8281 38.9714L17.1976 31.3378C16.6191 30.7597 15.8345 30.4351 15.0166 30.4353C14.1987 30.4356 13.4144 30.7608 12.8362 31.3394C12.2581 31.9179 11.9335 32.7025 11.9337 33.5204C11.934 34.3383 12.2592 35.1226 12.8378 35.7008L12.8193 35.6923L17.2685 40.1415C17.4158 40.2837 17.5332 40.4539 17.614 40.642C17.6948 40.83 17.7373 41.0323 17.7391 41.237C17.7409 41.4417 17.7019 41.6447 17.6244 41.8342C17.5469 42.0237 17.4324 42.1958 17.2876 42.3406C17.1429 42.4853 16.9708 42.5998 16.7813 42.6773C16.5918 42.7548 16.3888 42.7938 16.1841 42.792C15.9794 42.7903 15.7771 42.7477 15.589 42.6669C15.4009 42.5861 15.2308 42.4687 15.0886 42.3215L6.33272 33.5417V22.75C6.33272 21.9322 6.00787 21.148 5.42963 20.5697C4.8514 19.9915 4.06714 19.6667 3.24939 19.6667C2.43164 19.6667 1.64738 19.9915 1.06914 20.5697C0.490903 21.148 0.166053 21.9322 0.166053 22.75V37.1391C0.163345 37.8085 0.306956 38.4705 0.586835 39.0785C0.866715 39.6866 1.2761 40.2262 1.78635 40.6595L15.5827 54.2671V61.2924C15.5826 61.4948 15.6224 61.6952 15.6997 61.8822C15.7771 62.0692 15.8905 62.2391 16.0335 62.3822C16.1765 62.5254 16.3463 62.639 16.5332 62.7165C16.7201 62.794 16.9205 62.834 17.1228 62.8341H26.3744C26.5767 62.8342 26.7771 62.7944 26.9641 62.7171C27.1511 62.6398 27.321 62.5263 27.4642 62.3833C27.6073 62.2403 27.7209 62.0705 27.7985 61.8836C27.876 61.6967 27.916 61.4963 27.9161 61.294V44.0658C27.9159 42.8561 27.4406 41.6949 26.5925 40.8322L24.8566 39.0015ZM58.7494 19.6667C57.9319 19.6675 57.1481 19.9926 56.57 20.5706C55.992 21.1487 55.6669 21.9325 55.6661 22.75V33.5417L46.9102 42.3222C46.7679 42.4695 46.5978 42.5869 46.4097 42.6677C46.2216 42.7485 46.0194 42.791 45.8147 42.7928C45.61 42.7946 45.4069 42.7556 45.2175 42.6781C45.028 42.6006 44.8559 42.4861 44.7111 42.3413C44.5664 42.1966 44.4519 42.0244 44.3744 41.835C44.2969 41.6455 44.2579 41.4425 44.2597 41.2378C44.2614 41.0331 44.304 40.8308 44.3848 40.6427C44.4656 40.4546 44.583 40.2845 44.7302 40.1423L49.1795 35.6931L49.161 35.7015C49.7396 35.1234 50.0647 34.3391 50.065 33.5212C50.0653 32.7033 49.7407 31.9187 49.1625 31.3402C48.5844 30.7616 47.8001 30.4364 46.9822 30.4361C46.1642 30.4358 45.3797 30.7605 44.8012 31.3386L37.1707 38.9722C37.1653 38.9776 37.1637 38.9853 37.1583 38.9907C37.153 38.9961 37.1468 38.9976 37.1422 39.0022L35.4062 40.833C34.558 41.6952 34.0827 42.8563 34.0827 44.0658V61.2924C34.0826 61.4948 34.1224 61.6952 34.1997 61.8822C34.2771 62.0692 34.3905 62.2391 34.5335 62.3822C34.6765 62.5254 34.8463 62.639 35.0332 62.7165C35.2201 62.794 35.4205 62.834 35.6228 62.8341H44.8744C45.0767 62.8342 45.2771 62.7944 45.4641 62.7171C45.6511 62.6398 45.821 62.5263 45.9642 62.3833C46.1074 62.2403 46.2209 62.0705 46.2985 61.8836C46.376 61.6967 46.416 61.4963 46.4161 61.294V54.2671L60.2124 40.6588C60.7227 40.2255 61.1321 39.6859 61.4119 39.0778C61.6918 38.4697 61.8354 37.8078 61.8327 37.1384V22.75C61.8317 21.9326 61.5065 21.1489 60.9285 20.5709C60.3505 19.9929 59.5668 19.6677 58.7494 19.6667ZM37.0543 1.00324C35.333 0.60395 33.4846 2.23349 32.9265 4.64158C32.3684 7.04966 33.3111 9.32593 35.0332 9.72445C36.7544 10.1237 38.6029 8.4942 39.161 6.08612C39.7191 3.67803 38.7756 1.40176 37.0543 1.00324ZM25.1287 1.00324C26.85 0.60395 28.6985 2.23349 29.2565 4.64158C29.8146 7.04966 28.8719 9.32593 27.1498 9.72445C25.4286 10.1237 23.5801 8.4942 23.022 6.08612C22.4647 3.67803 23.4074 1.40176 25.1287 1.00324ZM30.9994 28.2191C24.8844 28.2191 21.2337 26.0283 21.2337 22.3592C21.2337 18.4449 25.5003 13.8954 30.9994 13.8954C36.4985 13.8954 40.7651 18.4457 40.7651 22.3592C40.7651 26.0283 37.1144 28.2191 30.9994 28.2191ZM45.1812 7.67403C43.4954 7.14293 41.5274 8.6237 40.7843 10.9817C40.0413 13.3397 40.8052 15.6814 42.491 16.2126C44.1768 16.7437 46.1447 15.2629 46.8878 12.9049C47.6301 10.5469 46.8662 8.20514 45.1812 7.67403ZM16.8176 7.67403C18.5034 7.14293 20.4713 8.6237 21.2144 10.9817C21.9575 13.3397 21.1936 15.6814 19.5078 16.2126C17.822 16.7437 15.8541 15.2629 15.111 12.9049C14.3679 10.5469 15.1326 8.20514 16.8176 7.67403Z" fill="#53B175"/>
</svg>
