<svg width="74" height="74" viewBox="0 0 74 74" fill="none" xmlns="http://www.w3.org/2000/svg">
<g clip-path="url(#clip0_101_1883)">
<path d="M73.0947 10.4287L68.4601 1.19542C68.0923 0.462644 67.3425 0 66.5225 0H7.73994C6.93822 0 6.20198 0.44241 5.82576 1.15032L0.86921 10.4737C0.86921 10.4737 0.0125732 12.6758 0.0125732 13.9093C0.0125732 17.9421 3.32451 21.2114 7.41012 21.2114C11.4956 21.2114 14.8077 17.9421 14.8077 13.9093C14.8077 17.9421 18.1196 21.2114 22.2052 21.2114C26.2907 21.2114 29.6027 17.9421 29.6027 13.9093C29.6027 17.9421 32.9147 21.2114 37.0003 21.2114C41.0859 21.2114 44.3978 17.9421 44.3978 13.9093C44.3978 17.9421 47.7098 21.2114 51.7954 21.2114C55.881 21.2114 59.1929 17.9421 59.1929 13.9093C59.1929 17.9421 62.5049 21.2114 66.5905 21.2114C70.6759 21.2114 73.988 17.9421 73.988 13.9093C73.9876 12.6489 73.6641 11.4632 73.0947 10.4287Z" fill="#9A98FD"/>
<path d="M71.9994 69.8312H69.6235V25.151C68.6552 25.4083 67.6389 25.5476 66.5899 25.5476C63.7881 25.5476 61.2122 24.5682 59.1923 22.937C57.1725 24.5682 54.5965 25.5476 51.7948 25.5476C48.9931 25.5476 46.4171 24.5682 44.3973 22.937C42.3774 24.5682 39.8014 25.5476 36.9997 25.5476C34.198 25.5476 31.622 24.5682 29.6022 22.937C27.5823 24.5682 25.0064 25.5476 22.2046 25.5476C19.4029 25.5476 16.8269 24.5682 14.8071 22.9368C12.7873 24.5682 10.2113 25.5476 7.40954 25.5476C6.36068 25.5476 5.34433 25.4083 4.37612 25.151V69.831H2.0006C0.89566 69.8312 0 70.7268 0 71.8319C0 73.0293 0.970672 74 2.16797 74H71.832C73.0293 74 74 73.0293 74 71.8319C74 70.7268 73.1043 69.8312 71.9994 69.8312ZM14.0503 42.5023C14.0503 38.2232 17.5314 34.7419 21.8101 34.7419C24.8959 34.7419 27.6293 36.5674 28.8678 39.2749H45.1323C46.3707 36.5674 49.1041 34.7419 52.1901 34.7419C56.4686 34.7419 59.9497 38.2232 59.9497 42.5023C59.9497 44.1362 59.4519 45.6821 58.5411 46.9704C59.4519 48.2586 59.9497 49.8045 59.9497 51.4384C59.9497 55.7175 56.4686 59.1989 52.1901 59.1989C48.964 59.1989 46.1402 57.201 44.9858 54.3211H29.0142C27.86 57.2011 25.0361 59.1989 21.8101 59.1989C17.5314 59.1989 14.0503 55.7175 14.0503 51.4384C14.0503 49.8045 14.5481 48.2586 15.4589 46.9704C14.5481 45.6821 14.0503 44.1361 14.0503 42.5023Z" fill="#9A98FD"/>
<path d="M54.2476 45.2389C55.1158 44.5843 55.6137 43.5869 55.6137 42.5023C55.6137 40.6141 54.0778 39.0781 52.19 39.0781C50.5506 39.0781 49.137 40.2444 48.8288 41.8513C48.633 42.8727 47.7395 43.6111 46.6997 43.6111H27.3003C26.2604 43.6111 25.3671 42.8727 25.1712 41.8515C24.8629 40.2444 23.4494 39.0781 21.8102 39.0781C19.9223 39.0781 18.3864 40.6141 18.3864 42.5023C18.3864 43.5869 18.8844 44.5843 19.7528 45.2389C20.2962 45.6486 20.6157 46.2896 20.6157 46.9703C20.6157 47.6509 20.2962 48.2919 19.7528 48.7018C18.8844 49.3564 18.3864 50.3538 18.3864 51.4384C18.3864 53.3265 19.9223 54.8626 21.8102 54.8626C23.5281 54.8626 24.9872 53.5798 25.2043 51.8786C25.3425 50.7959 26.2636 49.9848 27.3548 49.9848H46.6452C47.7365 49.9848 48.6577 50.7959 48.7957 51.8786C49.0128 53.5799 50.4721 54.8626 52.19 54.8626C54.0779 54.8626 55.6137 53.3265 55.6137 51.4384C55.6137 50.3537 55.1158 49.3563 54.2476 48.7018C53.704 48.2922 53.3845 47.6511 53.3845 46.9703C53.3845 46.2896 53.704 45.6485 54.2476 45.2389Z" fill="#9A98FD"/>
</g>
<defs>
<clipPath id="clip0_101_1883">
<rect width="74" height="74" fill="white"/>
</clipPath>
</defs>
</svg>
