<svg width="18" height="18" viewBox="0 0 18 18" fill="none" xmlns="http://www.w3.org/2000/svg">
<path d="M2.26582 4.79699H17.2716C17.5147 4.79699 17.7579 4.86646 18.001 4.97067V3.37283C18.001 1.80973 16.7505 0.524519 15.1874 0.455048V2.05288C15.1874 2.43497 14.8748 2.74759 14.4927 2.74759C14.1106 2.74759 13.798 2.40024 13.798 2.05288V0.455048H5.21834V1.98341C5.21834 2.3655 4.90572 2.67812 4.52363 2.67812C4.14154 2.67812 3.82892 2.33077 3.82892 1.98341V0.455048C2.23108 0.455048 0.911133 1.775 0.911133 3.37283V5.70011C1.11955 5.14434 1.64058 4.79699 2.26582 4.79699ZM16.6116 14.0366C16.1253 15.0092 15.1527 15.5997 14.1106 15.5997H1.08481C1.50164 16.746 2.57844 17.5449 3.82892 17.5449H15.0832C16.6811 17.5449 18.001 16.225 18.001 14.6271V10.4241C17.8968 10.8062 17.7579 11.2231 17.6189 11.6052C17.341 12.4041 16.9937 13.2377 16.6116 14.0366Z" fill="#01C9D2"/>
<path d="M17.2715 6.1864H2.26577C2.1963 6.1864 2.16157 6.22114 2.16157 6.29061C1.95315 7.99265 1.53633 9.65996 0.980559 11.2578C0.702675 11.9872 0.390055 12.7514 0.0426998 13.4809C-0.0962423 13.7935 0.112171 14.2103 0.494262 14.2103H14.1453C14.6664 14.2103 15.1527 13.8977 15.3958 13.4461C15.7432 12.7167 16.0558 11.9178 16.3337 11.1536C16.8894 9.59048 17.2368 7.95791 17.4105 6.32534C17.4105 6.29061 17.4105 6.25587 17.3757 6.22114C17.341 6.1864 17.3063 6.1864 17.2715 6.1864ZM11.9917 8.99998L9.14341 11.8483C8.86553 12.1262 8.41396 12.1262 8.17081 11.8483L6.19089 9.86837C5.56565 9.24313 6.53824 8.2358 7.16348 8.89577L8.65711 10.3894L11.0191 8.02738C11.6444 7.40215 12.617 8.37474 11.9917 8.99998Z" fill="#01C9D2"/>
</svg>
