<svg width="20" height="20" viewBox="0 0 20 20" fill="none" xmlns="http://www.w3.org/2000/svg">
<path d="M8.64914 0.939835L4.92914 7.01983C4.51914 7.67983 4.99914 8.53983 5.77914 8.53983H13.2091C13.9891 8.53983 14.4691 7.67983 14.0591 7.01983L10.3491 0.939835C10.2607 0.793471 10.1361 0.672414 9.98714 0.588385C9.83822 0.504357 9.67013 0.460205 9.49914 0.460205C9.32816 0.460205 9.16007 0.504357 9.01115 0.588385C8.86224 0.672414 8.73754 0.793471 8.64914 0.939835Z" fill="#01C9D2"/>
<path d="M15 19.5398C17.4853 19.5398 19.5 17.5251 19.5 15.0398C19.5 12.5545 17.4853 10.5398 15 10.5398C12.5147 10.5398 10.5 12.5545 10.5 15.0398C10.5 17.5251 12.5147 19.5398 15 19.5398Z" fill="#01C9D2"/>
<path d="M1.5 19.0398H7.5C8.05 19.0398 8.5 18.5898 8.5 18.0398V12.0398C8.5 11.4898 8.05 11.0398 7.5 11.0398H1.5C0.95 11.0398 0.5 11.4898 0.5 12.0398V18.0398C0.5 18.5898 0.95 19.0398 1.5 19.0398Z" fill="#01C9D2"/>
</svg>
