<svg width="22" height="22" viewBox="0 0 22 22" fill="none" xmlns="http://www.w3.org/2000/svg">
<mask id="mask0_0_5627" style="mask-type:luminance" maskUnits="userSpaceOnUse" x="0" y="0" width="22" height="22">
<path d="M22 0H0V22H22V0Z" fill="white"/>
<path d="M16.5 17.875C14.981 17.875 13.75 16.644 13.75 15.125C13.75 13.6061 14.981 12.375 16.5 12.375C18.0189 12.375 19.25 13.6061 19.25 15.125C19.25 16.644 18.0189 17.875 16.5 17.875ZM17.8763 9.79862V5.94391L19.2397 6.93649L20.8596 4.71157L16.5 1.53748L12.1404 4.71157L13.7603 6.93649L15.1237 5.94391V9.79862C12.7523 10.4096 11 12.5628 11 15.125C11 18.1625 13.4626 20.625 16.5 20.625C19.5374 20.625 22 18.1625 22 15.125C22 12.5628 20.2477 10.4096 17.8763 9.79862Z" fill="white"/>
<path d="M5.49998 9.62503C3.98104 9.62503 2.74999 8.39398 2.74999 6.87504C2.74999 5.3561 3.98104 4.12505 5.49998 4.12505C7.01892 4.12505 8.24998 5.3561 8.24998 6.87504C8.24998 8.39398 7.01892 9.62503 5.49998 9.62503ZM11 6.87504C11 3.83759 8.53739 1.37506 5.49998 1.37506C2.46257 1.37506 0 3.83759 0 6.87504C0 9.43726 1.75226 11.5904 4.1237 12.2014V15.1237H2.25972V17.8763H4.1237V20.625H6.87627V17.8763H8.74025V15.1237H6.87627V12.2014C9.24771 11.5904 11 9.43726 11 6.87504Z" fill="white"/>
</mask>
<g mask="url(#mask0_0_5627)">
<mask id="mask1_0_5627" style="mask-type:luminance" maskUnits="userSpaceOnUse" x="0" y="0" width="22" height="22">
<path d="M0 6.48499e-05H21.9999V22H0V6.48499e-05Z" fill="white"/>
</mask>
<g mask="url(#mask1_0_5627)">
<path d="M16.5 17.875C14.981 17.875 13.75 16.644 13.75 15.125C13.75 13.6061 14.981 12.375 16.5 12.375C18.0189 12.375 19.25 13.6061 19.25 15.125C19.25 16.644 18.0189 17.875 16.5 17.875ZM17.8763 9.79862V5.94391L19.2397 6.93649L20.8596 4.71157L16.5 1.53748L12.1404 4.71157L13.7603 6.93649L15.1237 5.94391V9.79862C12.7523 10.4096 11 12.5628 11 15.125C11 18.1625 13.4626 20.625 16.5 20.625C19.5374 20.625 22 18.1625 22 15.125C22 12.5628 20.2477 10.4096 17.8763 9.79862Z" fill="#01C9D2"/>
<path d="M5.49998 9.62503C3.98104 9.62503 2.74999 8.39398 2.74999 6.87504C2.74999 5.3561 3.98104 4.12505 5.49998 4.12505C7.01892 4.12505 8.24998 5.3561 8.24998 6.87504C8.24998 8.39398 7.01892 9.62503 5.49998 9.62503ZM11 6.87504C11 3.83759 8.53739 1.37506 5.49998 1.37506C2.46257 1.37506 0 3.83759 0 6.87504C0 9.43726 1.75226 11.5904 4.1237 12.2014V15.1237H2.25972V17.8763H4.1237V20.625H6.87627V17.8763H8.74025V15.1237H6.87627V12.2014C9.24771 11.5904 11 9.43726 11 6.87504Z" fill="#01C9D2"/>
</g>
</g>
</svg>
