<svg width="20" height="20" viewBox="0 0 20 20" fill="none" xmlns="http://www.w3.org/2000/svg">
<path d="M2.5 9.4978C3.88071 9.4978 5 8.37851 5 6.9978C5 5.61709 3.88071 4.4978 2.5 4.4978C1.11929 4.4978 0 5.61709 0 6.9978C0 8.37851 1.11929 9.4978 2.5 9.4978Z" fill="#01C9D2"/>
<path d="M7 5.4978C8.38071 5.4978 9.5 4.37851 9.5 2.9978C9.5 1.61709 8.38071 0.497803 7 0.497803C5.61929 0.497803 4.5 1.61709 4.5 2.9978C4.5 4.37851 5.61929 5.4978 7 5.4978Z" fill="#01C9D2"/>
<path d="M13 5.4978C14.3807 5.4978 15.5 4.37851 15.5 2.9978C15.5 1.61709 14.3807 0.497803 13 0.497803C11.6193 0.497803 10.5 1.61709 10.5 2.9978C10.5 4.37851 11.6193 5.4978 13 5.4978Z" fill="#01C9D2"/>
<path d="M17.5 9.4978C18.8807 9.4978 20 8.37851 20 6.9978C20 5.61709 18.8807 4.4978 17.5 4.4978C16.1193 4.4978 15 5.61709 15 6.9978C15 8.37851 16.1193 9.4978 17.5 9.4978Z" fill="#01C9D2"/>
<path d="M15.3406 12.3578C14.4706 11.3378 13.7406 10.4678 12.8606 9.4478C12.4006 8.9078 11.8106 8.3678 11.1106 8.1278C11.0006 8.0878 10.8906 8.0578 10.7806 8.0378C10.5306 7.9978 10.2606 7.9978 10.0006 7.9978C9.74063 7.9978 9.47063 7.9978 9.21063 8.0478C9.10063 8.0678 8.99063 8.0978 8.88063 8.1378C8.18063 8.3778 7.60063 8.9178 7.13063 9.4578C6.26063 10.4778 5.53063 11.3478 4.65063 12.3678C3.34063 13.6778 1.73063 15.1278 2.03063 17.1578C2.32063 18.1778 3.05063 19.1878 4.36063 19.4778C5.09063 19.6278 7.42063 19.0378 9.90063 19.0378H10.0806C12.5606 19.0378 14.8906 19.6178 15.6206 19.4778C16.9306 19.1878 17.6606 18.1678 17.9506 17.1578C18.2606 15.1178 16.6506 13.6678 15.3406 12.3578Z" fill="#01C9D2"/>
</svg>
