<svg width="28" height="28" viewBox="0 0 28 28" fill="none" xmlns="http://www.w3.org/2000/svg">
<path d="M9.02841 7.37117V6.0189C9.02841 5.27312 9.63491 4.66663 10.3807 4.66663H18.4943C19.2401 4.66663 19.8466 5.27312 19.8466 6.0189V7.37117C19.8466 8.11695 19.2401 8.72345 18.4943 8.72345H10.3807C9.63491 8.72345 9.02841 8.11695 9.02841 7.37117ZM17.8182 16.8371C17.8182 18.7012 16.3016 20.2178 14.4375 20.2178C12.5734 20.2178 11.0568 18.7012 11.0568 16.8371C11.0568 14.973 12.5734 13.4564 14.4375 13.4564C16.3016 13.4564 17.8182 14.973 17.8182 16.8371ZM16.4659 16.8371C16.4659 16.6578 16.3947 16.4858 16.2679 16.359C16.1411 16.2322 15.9691 16.161 15.7898 16.161H15.1136V15.4848C15.1136 15.3055 15.0424 15.1335 14.9156 15.0067C14.7888 14.8799 14.6168 14.8087 14.4375 14.8087C14.2582 14.8087 14.0862 14.8799 13.9594 15.0067C13.8326 15.1335 13.7614 15.3055 13.7614 15.4848V16.161H13.0852C12.9059 16.161 12.7339 16.2322 12.6071 16.359C12.4803 16.4858 12.4091 16.6578 12.4091 16.8371C12.4091 17.0164 12.4803 17.1884 12.6071 17.3152C12.7339 17.442 12.9059 17.5132 13.0852 17.5132H13.7614V18.1894C13.7614 18.3687 13.8326 18.5407 13.9594 18.6675C14.0862 18.7943 14.2582 18.8655 14.4375 18.8655C14.6168 18.8655 14.7888 18.7943 14.9156 18.6675C15.0424 18.5407 15.1136 18.3687 15.1136 18.1894V17.5132H15.7898C15.9691 17.5132 16.1411 17.442 16.2679 17.3152C16.3947 17.1884 16.4659 17.0164 16.4659 16.8371ZM21.875 13.0196V21.57C21.875 22.6884 20.9649 23.5985 19.8466 23.5985H9.02841C7.91008 23.5985 7 22.6884 7 21.57V13.0196C7 12.1859 7.50034 11.4462 8.27452 11.1366L9.95607 10.4638C10.0431 10.4286 10.1218 10.3754 10.1869 10.3077C10.2521 10.24 10.3022 10.1594 10.334 10.071C10.3496 10.071 10.3645 10.0757 10.3807 10.0757H18.4943C18.5099 10.0757 18.5248 10.071 18.541 10.071C18.573 10.1594 18.6233 10.2401 18.6885 10.3079C18.7538 10.3757 18.8325 10.4291 18.9196 10.4645L20.5998 11.1366C20.9771 11.2861 21.3005 11.5457 21.528 11.8818C21.7554 12.2178 21.8764 12.6139 21.875 13.0196ZM19.1705 16.8371C19.1705 14.2272 17.0467 12.1041 14.4375 12.1041C11.8283 12.1041 9.70455 14.2272 9.70455 16.8371C9.70455 19.447 11.8283 21.57 14.4375 21.57C17.0467 21.57 19.1705 19.447 19.1705 16.8371Z" fill="#AAAABC"/>
</svg>
