<svg width="16" height="16" viewBox="0 0 16 16" fill="none" xmlns="http://www.w3.org/2000/svg">
<path d="M15.4067 0.774399C15.7502 0.868192 16 1.14957 16 1.49347C16 9.52834 9.50547 16 1.51221 16C1.13753 16 0.856514 15.7812 0.762842 15.4372L0.013474 12.1858C-0.0489733 11.8419 0.107145 11.4667 0.450606 11.3104L3.94766 9.80972C4.25989 9.68466 4.60336 9.77845 4.82192 10.0286L6.38311 11.9357C8.81855 10.7789 10.7856 8.778 11.9097 6.40193L10.0051 4.83873C9.75526 4.61988 9.66159 4.27598 9.78649 3.96333L11.2852 0.461759C11.4413 0.117854 11.816 -0.0697304 12.1595 0.0240618L15.4067 0.774399Z" fill="#02CAD3"/>
</svg>
