<svg width="29" height="28" viewBox="0 0 29 28" fill="none" xmlns="http://www.w3.org/2000/svg">
<path d="M15.0832 13.7666C17.5961 13.7666 19.6332 11.7295 19.6332 9.21656C19.6332 6.70367 17.5961 4.66656 15.0832 4.66656C12.5703 4.66656 10.5332 6.70367 10.5332 9.21656C10.5332 11.7295 12.5703 13.7666 15.0832 13.7666Z" fill="#AAAABC"/>
<path d="M17.3583 15.2301H12.8083C11.4005 15.2301 10.0503 15.7894 9.05478 16.7849C8.05927 17.7804 7.5 19.1306 7.5 20.5384C7.5 21.1418 7.73969 21.7205 8.16633 22.1471C8.59298 22.5738 9.17163 22.8134 9.775 22.8134H20.3917C20.995 22.8134 21.5737 22.5738 22.0003 22.1471C22.427 21.7205 22.6667 21.1418 22.6667 20.5384C22.6667 19.1306 22.1074 17.7804 21.1119 16.7849C20.1164 15.7894 18.7662 15.2301 17.3583 15.2301Z" fill="#AAAABC"/>
</svg>
