<svg width="112" height="171" viewBox="0 0 112 171" fill="none" xmlns="http://www.w3.org/2000/svg">
<path d="M9.9136 104.4V69.6C9.9136 57.294 14.8022 45.4919 23.5038 36.7902C32.2055 28.0886 44.0076 23.2 56.3136 23.2C68.6197 23.2 80.4217 28.0886 89.1234 36.7902C97.825 45.4919 102.714 57.294 102.714 69.6V104.4H108.514V116H4.1136V104.4H9.9136ZM21.5136 69.6H33.1136C33.1136 63.447 35.5579 57.546 39.9087 53.1951C44.2596 48.8443 50.1606 46.4 56.3136 46.4V34.8C47.0841 34.8 38.2326 38.4664 31.7063 44.9927C25.18 51.519 21.5136 60.3705 21.5136 69.6ZM50.5136 0H62.1136V17.4H50.5136V0ZM101.426 16.2864L109.627 24.4876L97.3312 36.7894L89.1242 28.5882L101.426 16.2864ZM3.0058 24.4876L11.207 16.2864L23.5088 28.5824L15.3018 36.7952L3.0058 24.4876Z" fill="#E85454"/>
<path d="M17.38 170.674C14.5567 170.674 12.0267 170.215 9.79 169.299C7.55333 168.382 5.75667 167.025 4.4 165.229C3.08 163.432 2.38333 161.269 2.31 158.739H12.32C12.4667 160.169 12.9617 161.269 13.805 162.039C14.6483 162.772 15.7483 163.139 17.105 163.139C18.4983 163.139 19.5983 162.827 20.405 162.204C21.2117 161.544 21.615 160.645 21.615 159.509C21.615 158.555 21.285 157.767 20.625 157.144C20.0017 156.52 19.2133 156.007 18.26 155.604C17.3433 155.2 16.0233 154.742 14.3 154.229C11.8067 153.459 9.77167 152.689 8.195 151.919C6.61833 151.149 5.26167 150.012 4.125 148.509C2.98833 147.005 2.42 145.044 2.42 142.624C2.42 139.03 3.72167 136.225 6.325 134.209C8.92833 132.155 12.32 131.129 16.5 131.129C20.7533 131.129 24.1817 132.155 26.785 134.209C29.3883 136.225 30.7817 139.049 30.965 142.679H20.79C20.7167 141.432 20.2583 140.46 19.415 139.764C18.5717 139.03 17.49 138.664 16.17 138.664C15.0333 138.664 14.1167 138.975 13.42 139.599C12.7233 140.185 12.375 141.047 12.375 142.184C12.375 143.43 12.9617 144.402 14.135 145.099C15.3083 145.795 17.1417 146.547 19.635 147.354C22.1283 148.197 24.145 149.004 25.685 149.774C27.2617 150.544 28.6183 151.662 29.755 153.129C30.8917 154.595 31.46 156.484 31.46 158.794C31.46 160.994 30.8917 162.992 29.755 164.789C28.655 166.585 27.0417 168.015 24.915 169.079C22.7883 170.142 20.2767 170.674 17.38 170.674ZM55.6079 170.674C51.9779 170.674 48.6412 169.83 45.5979 168.144C42.5912 166.457 40.1896 164.11 38.3929 161.104C36.6329 158.06 35.7529 154.65 35.7529 150.874C35.7529 147.097 36.6329 143.705 38.3929 140.699C40.1896 137.692 42.5912 135.345 45.5979 133.659C48.6412 131.972 51.9779 131.129 55.6079 131.129C59.2379 131.129 62.5562 131.972 65.5629 133.659C68.6062 135.345 70.9896 137.692 72.7129 140.699C74.4729 143.705 75.3529 147.097 75.3529 150.874C75.3529 154.65 74.4729 158.06 72.7129 161.104C70.9529 164.11 68.5696 166.457 65.5629 168.144C62.5562 169.83 59.2379 170.674 55.6079 170.674ZM55.6079 162.094C58.6879 162.094 61.1446 161.067 62.9779 159.014C64.8479 156.96 65.7829 154.247 65.7829 150.874C65.7829 147.464 64.8479 144.75 62.9779 142.734C61.1446 140.68 58.6879 139.654 55.6079 139.654C52.4912 139.654 49.9979 140.662 48.1279 142.679C46.2946 144.695 45.3779 147.427 45.3779 150.874C45.3779 154.284 46.2946 157.015 48.1279 159.069C49.9979 161.085 52.4912 162.094 55.6079 162.094ZM94.6552 170.674C91.8319 170.674 89.3019 170.215 87.0652 169.299C84.8285 168.382 83.0319 167.025 81.6752 165.229C80.3552 163.432 79.6585 161.269 79.5852 158.739H89.5952C89.7419 160.169 90.2369 161.269 91.0802 162.039C91.9235 162.772 93.0235 163.139 94.3802 163.139C95.7735 163.139 96.8735 162.827 97.6802 162.204C98.4869 161.544 98.8902 160.645 98.8902 159.509C98.8902 158.555 98.5602 157.767 97.9002 157.144C97.2769 156.52 96.4885 156.007 95.5352 155.604C94.6185 155.2 93.2985 154.742 91.5752 154.229C89.0819 153.459 87.0469 152.689 85.4702 151.919C83.8935 151.149 82.5369 150.012 81.4002 148.509C80.2635 147.005 79.6952 145.044 79.6952 142.624C79.6952 139.03 80.9969 136.225 83.6002 134.209C86.2035 132.155 89.5952 131.129 93.7752 131.129C98.0285 131.129 101.457 132.155 104.06 134.209C106.664 136.225 108.057 139.049 108.24 142.679H98.0652C97.9919 141.432 97.5335 140.46 96.6902 139.764C95.8469 139.03 94.7652 138.664 93.4452 138.664C92.3085 138.664 91.3919 138.975 90.6952 139.599C89.9985 140.185 89.6502 141.047 89.6502 142.184C89.6502 143.43 90.2369 144.402 91.4102 145.099C92.5835 145.795 94.4169 146.547 96.9102 147.354C99.4035 148.197 101.42 149.004 102.96 149.774C104.537 150.544 105.894 151.662 107.03 153.129C108.167 154.595 108.735 156.484 108.735 158.794C108.735 160.994 108.167 162.992 107.03 164.789C105.93 166.585 104.317 168.015 102.19 169.079C100.064 170.142 97.5519 170.674 94.6552 170.674Z" fill="#E85454"/>
</svg>
