<svg width="26" height="28" viewBox="0 0 26 28" fill="none" xmlns="http://www.w3.org/2000/svg">
<path d="M2.30124 24.6639V16.4426C2.30124 13.5354 3.43608 10.7472 5.45613 8.69148C7.47617 6.63576 10.2159 5.48087 13.0727 5.48087C15.9295 5.48087 18.6692 6.63576 20.6893 8.69148C22.7093 10.7472 23.8442 13.5354 23.8442 16.4426V24.6639H25.1906V27.4043H0.954804V24.6639H2.30124ZM4.9941 16.4426H7.68697C7.68697 14.989 8.25439 13.5949 9.26441 12.567C10.2744 11.5392 11.6443 10.9617 13.0727 10.9617V8.2213C10.9301 8.2213 8.8753 9.08747 7.36027 10.6293C5.84524 12.1711 4.9941 14.2622 4.9941 16.4426ZM11.7263 0H14.4191V4.11065H11.7263V0ZM23.5453 3.84757L25.4491 5.78505L22.5947 8.69128L20.6895 6.7538L23.5453 3.84757ZM0.697635 5.78505L2.60149 3.84757L5.45728 6.75243L3.55207 8.69265L0.697635 5.78505Z" fill="white"/>
</svg>
