<svg width="35" height="26" viewBox="0 0 35 26" fill="none" xmlns="http://www.w3.org/2000/svg">
<path d="M27.0664 25.3696H19.7718V17.9986H22.1825C22.7938 17.9986 23.1551 17.3039 22.7938 16.8036L18.1044 10.3149C17.8057 9.89805 17.1874 9.89805 16.8886 10.3149L12.1992 16.8036C11.838 17.3039 12.1923 17.9986 12.8106 17.9986H15.2213V25.3696H7.05129C3.40396 25.1682 0.5 21.7571 0.5 18.0611C0.5 15.5114 1.88251 13.2883 3.93196 12.0864C3.74438 11.5793 3.64712 11.0374 3.64712 10.4677C3.64712 7.86249 5.75215 5.75747 8.35738 5.75747C8.92011 5.75747 9.462 5.85473 9.96915 6.0423C11.4767 2.84655 14.728 0.630371 18.5074 0.630371C23.3982 0.637318 27.4277 4.3819 27.8862 9.15469C31.6447 9.80079 34.5 13.2814 34.5 17.2205C34.5 21.4305 31.2209 25.0779 27.0664 25.3696Z" fill="#AAAABC"/>
</svg>
