<svg width="74" height="74" viewBox="0 0 74 74" fill="none" xmlns="http://www.w3.org/2000/svg">
<path d="M48.5634 26.1709C53.5991 26.1709 57.6814 21.0482 57.6814 14.7292C57.6814 8.41012 53.5991 3.28751 48.5634 3.28751C43.5276 3.28751 39.4453 8.41012 39.4453 14.7292C39.4453 21.0482 43.5276 26.1709 48.5634 26.1709Z" fill="#F8A44C"/>
<path d="M25.4384 26.1709C30.4741 26.1709 34.5564 21.0482 34.5564 14.7292C34.5564 8.41012 30.4741 3.28751 25.4384 3.28751C20.4026 3.28751 16.3203 8.41012 16.3203 14.7292C16.3203 21.0482 20.4026 26.1709 25.4384 26.1709Z" fill="#F8A44C"/>
<path d="M7.94922 37.7097C12.3395 37.7097 15.8984 34.1507 15.8984 29.7604C15.8984 25.3702 12.3395 21.8112 7.94922 21.8112C3.55899 21.8112 0 25.3702 0 29.7604C0 34.1507 3.55899 37.7097 7.94922 37.7097Z" fill="#F8A44C"/>
<path d="M66.0508 37.7097C70.441 37.7097 74 34.1507 74 29.7604C74 25.3702 70.441 21.8112 66.0508 21.8112C61.6605 21.8112 58.1016 25.3702 58.1016 29.7604C58.1016 34.1507 61.6605 37.7097 66.0508 37.7097Z" fill="#F8A44C"/>
<path d="M37.0006 32.6642C28.777 32.6642 22.61 35.2526 18.1471 40.5774C14.1938 45.2941 12.0468 51.503 9.97078 57.4084C7.41923 64.6455 13.6959 71.9545 21.2749 70.4986C27.4929 69.3027 36.0329 67.288 48.2389 69.6356C52.9428 70.5402 53.3799 70.684 54.6588 70.684C61.3399 70.6837 66.3595 64.0152 64.0301 57.4083C59.877 45.5937 55.4499 32.6642 37.0006 32.6642ZM42.7818 53.8972H39.1686V57.5104C39.1686 58.7077 38.1979 59.6784 37.0006 59.6784C35.8033 59.6784 34.8326 58.7077 34.8326 57.5104V53.8972H31.2193C30.022 53.8972 29.0514 52.9265 29.0514 51.7292C29.0514 50.5319 30.022 49.5612 31.2193 49.5612H34.8326V45.9479C34.8326 44.7506 35.8033 43.78 37.0006 43.78C38.1979 43.78 39.1686 44.7506 39.1686 45.9479V49.5612H42.7818C43.9791 49.5612 44.9498 50.5319 44.9498 51.7292C44.9498 52.9265 43.9791 53.8972 42.7818 53.8972Z" fill="#F8A44C"/>
</svg>
