<svg width="22" height="21" viewBox="0 0 22 21" fill="none" xmlns="http://www.w3.org/2000/svg">
<path d="M14.2809 7.43203C15.71 7.43203 16.8685 5.97832 16.8685 4.18507C16.8685 2.39182 15.71 0.93811 14.2809 0.93811C12.8518 0.93811 11.6934 2.39182 11.6934 4.18507C11.6934 5.97832 12.8518 7.43203 14.2809 7.43203Z" fill="#AAAABC"/>
<path d="M7.71841 7.43203C9.14748 7.43203 10.306 5.97832 10.306 4.18507C10.306 2.39182 9.14748 0.93811 7.71841 0.93811C6.28935 0.93811 5.13086 2.39182 5.13086 4.18507C5.13086 5.97832 6.28935 7.43203 7.71841 7.43203Z" fill="#AAAABC"/>
<path d="M2.75586 10.7066C4.00174 10.7066 5.01172 9.69662 5.01172 8.45074C5.01172 7.20487 4.00174 6.19489 2.75586 6.19489C1.50998 6.19489 0.5 7.20487 0.5 8.45074C0.5 9.69662 1.50998 10.7066 2.75586 10.7066Z" fill="#AAAABC"/>
<path d="M19.2441 10.7066C20.49 10.7066 21.5 9.69662 21.5 8.45074C21.5 7.20487 20.49 6.19489 19.2441 6.19489C17.9983 6.19489 16.9883 7.20487 16.9883 8.45074C16.9883 9.69662 17.9983 10.7066 19.2441 10.7066Z" fill="#AAAABC"/>
<path d="M10.9988 9.27478C8.66506 9.27478 6.91496 10.0093 5.64844 11.5204C4.52658 12.8589 3.9173 14.6209 3.32815 16.2968C2.60406 18.3506 4.38528 20.4247 6.53606 20.0116C8.30064 19.6722 10.7242 19.1004 14.188 19.7667C15.5229 20.0234 15.6469 20.0642 16.0099 20.0642C17.9059 20.0641 19.3304 18.1717 18.6693 16.2967C17.4907 12.944 16.2344 9.27478 10.9988 9.27478ZM12.6394 15.3003H11.614V16.3257C11.614 16.6655 11.3385 16.941 10.9988 16.941C10.659 16.941 10.3835 16.6655 10.3835 16.3257V15.3003H9.35814C9.01837 15.3003 8.74291 15.0249 8.74291 14.6851C8.74291 14.3453 9.01837 14.0699 9.35814 14.0699H10.3835V13.0445C10.3835 12.7047 10.659 12.4293 10.9988 12.4293C11.3385 12.4293 11.614 12.7047 11.614 13.0445V14.0699H12.6394C12.9792 14.0699 13.2546 14.3453 13.2546 14.6851C13.2546 15.0249 12.9792 15.3003 12.6394 15.3003Z" fill="#AAAABC"/>
</svg>
